<?xml version="1.0" encoding="UTF-8" ?>
<!DOCTYPE svg PUBLIC "-//W3C//DTD SVG 1.1//EN" "http://www.w3.org/Graphics/SVG/1.1/DTD/svg11.dtd">
<svg width="354pt" height="354pt" viewBox="0 0 354 354" version="1.1" xmlns="http://www.w3.org/2000/svg">
<g id="#ffffffff">
<path fill="#ffffff" opacity="1.00" d=" M 0.00 0.00 L 354.00 0.00 L 354.00 354.00 L 0.00 354.00 L 0.00 0.00 M 193.32 15.37 C 195.03 17.29 195.92 19.73 197.09 21.98 C 198.14 24.87 200.20 27.38 200.65 30.48 L 201.33 30.69 C 202.31 34.00 204.96 36.71 204.99 40.34 C 200.49 40.28 196.16 41.58 191.94 42.99 C 190.76 43.26 189.57 43.50 188.37 43.70 L 188.72 44.71 L 187.44 44.20 L 187.33 45.16 C 186.08 45.50 184.92 46.06 183.78 46.66 C 182.43 47.78 181.00 48.81 179.52 49.75 C 177.30 51.64 175.19 53.64 173.12 55.67 C 170.21 55.69 167.29 56.23 164.70 57.59 C 163.58 58.65 162.52 59.76 161.50 60.91 C 161.57 61.28 161.71 62.01 161.78 62.38 L 160.62 62.54 C 160.27 65.75 160.95 69.04 160.24 72.20 C 159.81 72.30 158.95 72.50 158.52 72.60 L 158.56 73.30 C 157.62 73.76 156.70 74.23 155.77 74.70 C 155.53 74.96 155.04 75.50 154.80 75.76 C 150.77 78.29 146.50 80.55 141.89 81.85 C 137.42 83.33 132.69 83.66 128.04 84.24 C 124.82 84.40 121.43 84.69 118.38 83.39 C 117.91 86.88 119.90 89.94 120.83 93.17 C 121.18 94.15 121.51 95.13 121.81 96.13 C 122.58 98.66 123.60 101.61 126.39 102.51 C 130.47 103.72 134.94 103.14 138.94 101.88 C 146.89 98.83 153.18 93.02 159.12 87.12 C 160.65 85.33 162.43 83.76 163.73 81.78 C 165.03 80.01 166.48 78.35 167.77 76.57 C 171.46 77.05 175.45 76.98 178.37 74.36 C 179.25 73.51 180.36 72.80 180.70 71.54 L 181.37 71.45 C 181.86 68.32 181.76 65.16 181.60 62.01 C 185.78 58.65 189.94 55.15 194.97 53.12 C 199.81 51.52 204.86 50.17 210.00 50.84 C 215.63 51.50 220.80 53.81 226.03 55.85 C 230.65 57.60 235.18 59.58 239.82 61.28 C 245.28 63.41 250.74 65.53 256.15 67.77 C 258.01 68.57 259.87 69.40 261.69 70.29 C 262.29 70.41 263.49 70.66 264.09 70.78 C 267.98 72.79 275.11 73.27 274.46 79.21 C 272.70 82.72 268.04 82.20 265.02 80.82 C 261.82 79.30 258.34 78.41 255.23 76.70 C 253.74 76.28 252.28 75.78 250.82 75.29 C 249.57 74.75 248.31 74.24 247.06 73.72 C 243.76 72.39 240.43 71.14 237.15 69.77 C 235.02 69.07 232.96 68.18 230.91 67.28 C 225.92 65.73 221.34 62.82 216.12 62.14 C 216.71 63.14 217.31 64.14 217.81 65.19 C 218.24 66.04 218.77 66.84 219.33 67.62 C 219.39 67.97 219.50 68.67 219.56 69.02 C 220.19 70.26 220.76 71.53 221.33 72.80 C 221.75 73.89 222.20 74.96 222.68 76.02 C 225.18 79.76 226.91 83.97 228.81 88.04 C 229.57 89.32 230.24 90.66 230.80 92.05 C 231.84 94.06 232.86 96.08 233.58 98.23 C 234.11 99.11 234.63 99.99 235.15 100.87 C 237.34 104.92 238.56 109.70 241.58 113.19 C 250.99 118.56 261.32 122.19 270.84 127.38 C 271.95 127.83 273.08 128.25 274.22 128.65 C 275.12 129.15 276.02 129.66 276.93 130.18 C 278.35 130.76 279.73 131.44 280.94 132.41 C 281.20 132.42 281.73 132.44 281.99 132.45 C 283.32 133.21 284.71 133.85 286.05 134.59 C 286.31 134.57 286.81 134.52 287.06 134.49 C 289.15 136.02 291.76 136.58 293.79 138.21 C 295.26 138.67 296.70 139.20 298.16 139.73 C 299.04 140.28 299.94 140.80 300.86 141.30 C 305.70 143.21 310.32 145.67 315.05 147.85 C 324.33 152.07 333.58 156.38 342.78 160.79 C 342.56 158.54 341.47 156.56 340.21 154.74 C 339.82 153.82 339.44 152.90 339.08 151.98 C 338.22 150.39 337.46 148.76 336.70 147.13 C 336.23 145.71 335.59 144.36 334.79 143.10 C 333.46 139.84 331.10 137.01 330.41 133.51 L 329.84 133.41 C 329.26 131.91 328.52 130.49 327.81 129.06 C 327.54 128.56 327.01 127.56 326.75 127.05 C 326.02 125.30 325.14 123.63 324.36 121.92 C 323.02 118.87 321.10 116.07 320.26 112.82 C 319.71 111.95 319.17 111.07 318.65 110.19 C 318.11 108.81 317.40 107.50 316.70 106.20 C 316.17 105.09 315.65 103.99 315.14 102.88 C 314.42 101.61 313.80 100.30 313.25 98.96 C 312.99 98.45 312.47 97.45 312.21 96.95 C 311.51 95.60 310.84 94.24 310.25 92.84 C 308.88 89.87 307.43 86.91 305.77 84.09 C 304.52 80.97 303.07 77.90 301.45 74.95 C 301.49 74.61 301.57 73.93 301.61 73.59 L 300.75 73.40 C 299.88 70.79 298.22 68.54 297.40 65.91 C 296.39 64.77 295.72 63.41 295.23 61.98 C 291.98 61.00 289.03 59.30 286.03 57.75 C 285.54 57.50 284.56 57.01 284.07 56.76 C 282.40 56.16 280.75 55.48 279.21 54.60 L 278.85 54.40 C 277.87 54.00 276.88 53.62 275.90 53.25 C 271.26 51.11 266.61 49.00 262.01 46.77 C 259.45 45.70 257.03 44.33 254.43 43.38 L 254.54 42.76 C 252.91 42.48 251.37 41.89 249.84 41.29 C 248.94 40.79 248.04 40.31 247.13 39.84 C 242.25 37.94 237.66 35.41 232.89 33.28 C 228.98 31.42 225.05 29.58 221.12 27.74 C 217.30 26.06 213.63 24.07 209.89 22.21 C 204.21 20.32 199.14 16.79 193.32 15.37 M 195.15 61.06 C 193.11 62.12 191.26 63.48 189.36 64.75 C 189.42 67.40 188.74 69.96 188.35 72.55 L 187.38 72.70 C 187.45 73.05 187.59 73.76 187.66 74.11 C 186.46 75.44 185.03 76.64 184.30 78.32 L 183.77 78.50 C 183.51 78.80 183.00 79.39 182.74 79.68 C 181.49 80.99 179.94 81.91 178.39 82.80 C 177.13 83.11 175.87 83.43 174.63 83.77 C 174.86 87.24 175.58 90.64 175.98 94.09 C 172.62 97.04 169.30 100.02 166.36 103.40 C 150.38 118.80 134.55 134.33 118.78 149.95 C 116.04 152.80 112.71 155.03 110.25 158.16 C 100.26 167.85 90.31 177.59 80.47 187.43 C 77.71 190.38 74.17 192.51 71.82 195.85 C 66.55 201.14 61.00 206.16 55.72 211.44 C 51.81 218.41 52.05 228.18 58.13 233.89 C 78.39 253.60 98.56 273.42 118.74 293.21 C 123.14 297.92 129.83 299.92 136.10 298.39 C 141.88 297.90 145.08 292.61 149.04 289.11 C 169.04 269.76 188.85 250.21 208.74 230.75 C 223.95 216.32 238.60 201.31 253.72 186.77 C 256.61 184.16 259.49 181.51 261.87 178.40 C 265.09 178.09 268.48 178.86 271.57 177.70 C 272.91 177.64 273.89 176.67 274.73 175.73 C 278.41 172.06 282.35 168.67 285.95 164.90 C 289.36 161.22 293.59 158.21 296.35 153.97 C 285.16 148.76 273.97 143.57 262.79 138.34 C 258.23 136.21 253.63 134.08 248.94 132.21 C 247.68 131.37 246.30 130.78 244.89 130.27 C 240.36 128.32 236.29 125.32 231.44 124.17 L 231.62 122.43 L 230.78 122.42 C 230.44 121.64 230.09 120.87 229.74 120.10 C 229.18 118.93 228.63 117.77 228.19 116.56 C 227.38 115.42 226.77 114.17 226.28 112.88 C 225.81 111.95 225.34 111.03 224.87 110.11 C 222.62 104.58 219.63 99.39 217.24 93.91 C 216.51 92.59 215.87 91.23 215.32 89.83 C 214.81 88.93 214.29 88.04 213.76 87.16 C 213.27 85.76 212.77 84.36 212.30 82.96 C 209.70 79.26 208.19 74.91 206.24 70.85 C 205.74 69.95 205.24 69.05 204.75 68.14 C 204.33 67.02 203.79 65.95 203.26 64.87 C 202.79 63.71 202.43 62.52 202.18 61.30 L 201.55 61.62 C 201.73 57.73 196.97 59.70 195.15 61.06 M 46.87 233.40 C 43.30 250.87 40.49 268.48 37.09 285.98 C 36.77 288.43 35.06 291.59 37.42 293.54 C 44.93 300.78 52.23 308.25 59.84 315.37 C 79.88 311.74 100.00 308.58 120.09 305.26 C 98.11 282.48 74.82 260.99 52.50 238.53 C 50.72 236.71 48.84 235.00 46.87 233.40 M 34.71 297.79 C 33.10 305.33 32.22 313.01 30.50 320.53 C 38.28 318.56 46.38 318.36 54.10 316.20 C 49.10 310.80 43.62 305.88 38.48 300.63 C 37.41 299.46 36.15 298.48 34.71 297.79 Z" />
</g>
<g id="#000000ff">
<path fill="#000000" opacity="1.00" d=" M 193.32 15.37 C 199.14 16.79 204.21 20.32 209.89 22.21 C 213.63 24.07 217.30 26.06 221.12 27.74 C 225.05 29.58 228.98 31.42 232.89 33.28 C 237.66 35.41 242.25 37.94 247.13 39.84 C 248.04 40.31 248.94 40.79 249.84 41.29 C 251.37 41.89 252.91 42.48 254.54 42.76 L 254.43 43.38 C 257.03 44.33 259.45 45.70 262.01 46.77 C 266.61 49.00 271.26 51.11 275.90 53.25 C 276.88 53.62 277.87 54.00 278.85 54.40 L 279.21 54.60 C 280.75 55.48 282.40 56.16 284.07 56.76 C 284.56 57.01 285.54 57.50 286.03 57.75 C 289.03 59.30 291.98 61.00 295.23 61.98 C 295.72 63.41 296.39 64.77 297.40 65.91 C 298.22 68.54 299.88 70.79 300.75 73.40 L 301.61 73.59 C 301.57 73.93 301.49 74.61 301.45 74.95 C 303.07 77.90 304.52 80.97 305.77 84.09 C 307.43 86.91 308.88 89.87 310.25 92.84 C 310.84 94.24 311.51 95.60 312.21 96.95 C 312.47 97.45 312.99 98.45 313.25 98.96 C 313.80 100.30 314.42 101.61 315.14 102.88 C 315.65 103.99 316.17 105.09 316.70 106.20 C 317.40 107.50 318.11 108.81 318.65 110.19 C 319.17 111.07 319.71 111.95 320.26 112.82 C 321.10 116.07 323.02 118.87 324.36 121.92 C 325.14 123.63 326.02 125.30 326.75 127.05 C 327.01 127.56 327.54 128.56 327.81 129.06 C 328.52 130.49 329.26 131.91 329.84 133.41 L 330.41 133.51 C 331.10 137.01 333.46 139.84 334.79 143.10 C 335.59 144.36 336.23 145.71 336.70 147.13 C 337.46 148.76 338.22 150.39 339.08 151.98 C 339.44 152.90 339.82 153.82 340.21 154.74 C 341.47 156.56 342.56 158.54 342.78 160.79 C 333.58 156.38 324.33 152.07 315.05 147.85 C 310.32 145.67 305.70 143.21 300.86 141.30 C 299.94 140.80 299.04 140.28 298.16 139.73 C 296.70 139.20 295.26 138.67 293.79 138.21 C 291.76 136.58 289.15 136.02 287.06 134.49 C 286.81 134.52 286.31 134.57 286.05 134.59 C 284.71 133.85 283.32 133.21 281.99 132.45 C 281.73 132.44 281.20 132.42 280.94 132.41 C 279.73 131.44 278.35 130.76 276.93 130.18 C 276.02 129.66 275.12 129.15 274.22 128.65 C 273.08 128.25 271.95 127.83 270.84 127.38 C 261.32 122.19 250.99 118.56 241.58 113.19 C 238.56 109.70 237.34 104.92 235.15 100.87 C 234.63 99.99 234.11 99.11 233.58 98.23 C 232.86 96.08 231.84 94.06 230.80 92.05 C 230.24 90.66 229.57 89.32 228.81 88.04 C 226.91 83.97 225.18 79.76 222.68 76.02 C 222.20 74.96 221.75 73.89 221.33 72.80 C 220.76 71.53 220.19 70.26 219.56 69.02 C 219.50 68.67 219.39 67.97 219.33 67.62 C 218.77 66.84 218.24 66.04 217.81 65.19 C 217.31 64.14 216.71 63.14 216.12 62.14 C 221.34 62.82 225.92 65.73 230.91 67.28 C 232.96 68.18 235.02 69.07 237.15 69.77 C 240.43 71.14 243.76 72.39 247.06 73.72 C 248.31 74.24 249.57 74.75 250.82 75.29 C 252.28 75.78 253.74 76.28 255.23 76.70 C 258.34 78.41 261.82 79.30 265.02 80.82 C 268.04 82.20 272.70 82.72 274.46 79.21 C 275.11 73.27 267.98 72.79 264.09 70.78 C 263.49 70.66 262.29 70.41 261.69 70.29 C 259.87 69.40 258.01 68.57 256.15 67.77 C 250.74 65.53 245.28 63.41 239.82 61.28 C 235.18 59.58 230.65 57.60 226.03 55.85 C 220.80 53.81 215.63 51.50 210.00 50.84 C 204.86 50.17 199.81 51.52 194.97 53.12 C 189.94 55.15 185.78 58.65 181.60 62.01 C 181.76 65.16 181.86 68.32 181.37 71.45 L 180.70 71.54 C 180.36 72.80 179.25 73.51 178.37 74.36 C 175.45 76.98 171.46 77.05 167.77 76.57 C 166.48 78.35 165.03 80.01 163.73 81.78 C 162.43 83.76 160.65 85.33 159.12 87.12 C 153.18 93.02 146.89 98.83 138.94 101.88 C 134.94 103.14 130.47 103.72 126.39 102.51 C 123.60 101.61 122.58 98.66 121.81 96.13 C 121.51 95.13 121.18 94.15 120.83 93.17 C 119.90 89.94 117.91 86.88 118.38 83.39 C 121.43 84.69 124.82 84.40 128.04 84.24 C 132.69 83.66 137.42 83.33 141.89 81.85 C 146.50 80.55 150.77 78.29 154.80 75.76 C 155.04 75.50 155.53 74.96 155.77 74.70 C 156.70 74.23 157.62 73.76 158.56 73.30 L 158.52 72.60 C 158.95 72.50 159.81 72.30 160.24 72.20 C 160.95 69.04 160.27 65.75 160.62 62.54 L 161.78 62.38 C 161.71 62.01 161.57 61.28 161.50 60.91 C 162.52 59.76 163.58 58.65 164.70 57.59 C 167.29 56.23 170.21 55.69 173.12 55.67 C 175.19 53.64 177.30 51.64 179.52 49.75 C 181.00 48.81 182.43 47.78 183.78 46.66 C 184.92 46.06 186.08 45.50 187.33 45.16 L 187.44 44.20 L 188.72 44.71 L 188.37 43.70 C 189.57 43.50 190.76 43.26 191.94 42.99 C 196.16 41.58 200.49 40.28 204.99 40.34 C 204.96 36.71 202.31 34.00 201.33 30.69 L 200.65 30.48 C 200.20 27.38 198.14 24.87 197.09 21.98 C 195.92 19.73 195.03 17.29 193.32 15.37 Z" />
<path fill="#000000" opacity="1.00" d=" M 195.15 61.06 C 196.97 59.70 201.73 57.73 201.55 61.62 L 202.18 61.30 C 202.43 62.52 202.79 63.71 203.26 64.87 C 203.79 65.95 204.33 67.02 204.75 68.14 C 205.24 69.05 205.74 69.95 206.24 70.85 C 208.19 74.91 209.70 79.26 212.30 82.96 C 212.77 84.36 213.27 85.76 213.76 87.16 C 214.29 88.04 214.81 88.93 215.32 89.83 C 215.87 91.23 216.51 92.59 217.24 93.91 C 219.63 99.39 222.62 104.58 224.87 110.11 C 225.34 111.03 225.81 111.95 226.28 112.88 C 226.77 114.17 227.38 115.42 228.19 116.56 C 228.63 117.77 229.18 118.93 229.74 120.10 C 230.09 120.87 230.44 121.64 230.78 122.42 L 231.62 122.43 L 231.44 124.17 C 236.29 125.32 240.36 128.32 244.89 130.27 C 246.30 130.78 247.68 131.37 248.94 132.21 C 253.63 134.08 258.23 136.21 262.79 138.34 C 273.97 143.57 285.16 148.76 296.35 153.97 C 293.59 158.21 289.36 161.22 285.95 164.90 C 282.35 168.67 278.41 172.06 274.73 175.73 C 273.89 176.67 272.91 177.64 271.57 177.70 C 264.05 177.91 256.43 177.61 249.37 174.75 C 229.84 167.86 213.94 153.80 200.09 138.82 C 192.41 129.81 185.48 119.97 181.07 108.91 C 179.34 104.02 177.09 99.19 176.71 93.95 C 176.47 90.91 176.16 87.88 175.63 84.88 C 176.54 84.17 177.46 83.48 178.39 82.80 C 179.94 81.91 181.49 80.99 182.74 79.68 C 183.00 79.39 183.51 78.80 183.77 78.50 L 184.30 78.32 C 185.03 76.64 186.46 75.44 187.66 74.11 C 187.59 73.76 187.45 73.05 187.38 72.70 L 188.35 72.55 C 188.74 69.96 189.42 67.40 189.36 64.75 C 191.26 63.48 193.11 62.12 195.15 61.06 Z" />
</g>
<g id="#6a6a6cff">
<path fill="#6a6a6c" opacity="1.00" d=" M 174.63 83.77 C 175.87 83.43 177.13 83.11 178.39 82.80 C 177.46 83.48 176.54 84.17 175.63 84.88 C 176.16 87.88 176.47 90.91 176.71 93.95 C 177.09 99.19 179.34 104.02 181.07 108.91 C 180.83 108.41 180.35 107.41 180.11 106.91 C 178.87 107.72 177.63 108.57 176.54 109.58 C 154.09 132.10 130.98 153.94 108.48 176.40 C 100.17 184.87 90.96 192.49 83.23 201.49 C 81.74 203.73 80.83 206.59 81.83 209.22 C 82.92 211.61 84.97 213.37 86.78 215.22 C 105.13 232.86 123.01 250.99 141.43 268.55 C 144.51 271.58 150.01 271.67 153.23 268.80 C 168.32 255.06 182.45 240.29 197.10 226.09 C 214.78 209.24 232.12 192.03 249.37 174.75 C 256.43 177.61 264.05 177.91 271.57 177.70 C 268.48 178.86 265.09 178.09 261.87 178.40 C 259.49 181.51 256.61 184.16 253.72 186.77 C 238.60 201.31 223.95 216.32 208.74 230.75 C 188.85 250.21 169.04 269.76 149.04 289.11 C 145.08 292.61 141.88 297.90 136.10 298.39 C 129.83 299.92 123.14 297.92 118.74 293.21 C 98.56 273.42 78.39 253.60 58.13 233.89 C 52.05 228.18 51.81 218.41 55.72 211.44 C 61.00 206.16 66.55 201.14 71.82 195.85 C 74.17 192.51 77.71 190.38 80.47 187.43 C 90.31 177.59 100.26 167.85 110.25 158.16 C 112.71 155.03 116.04 152.80 118.78 149.95 C 134.55 134.33 150.38 118.80 166.36 103.40 C 169.30 100.02 172.62 97.04 175.98 94.09 C 175.58 90.64 174.86 87.24 174.63 83.77 M 92.53 257.51 C 93.27 258.10 94.01 258.67 94.76 259.24 C 97.92 263.70 105.17 261.94 108.14 258.05 C 113.28 253.01 108.91 243.66 102.15 242.96 C 94.53 241.05 87.18 251.24 92.53 257.51 Z" />
</g>
<g id="#00b1b7ff">
<path fill="#00b1b7" opacity="1.00" d=" M 176.54 109.58 C 177.63 108.57 178.87 107.72 180.11 106.91 C 180.35 107.41 180.83 108.41 181.07 108.91 C 185.48 119.97 192.41 129.81 200.09 138.82 C 213.94 153.80 229.84 167.86 249.37 174.75 C 232.12 192.03 214.78 209.24 197.10 226.09 C 182.45 240.29 168.32 255.06 153.23 268.80 C 150.90 269.32 148.53 269.85 146.13 269.68 C 143.83 269.04 142.07 267.30 140.32 265.77 C 124.64 250.75 109.38 235.30 93.78 220.20 C 90.48 216.86 86.64 213.99 83.91 210.12 C 82.03 207.60 82.80 204.33 83.23 201.49 C 90.96 192.49 100.17 184.87 108.48 176.40 C 130.98 153.94 154.09 132.10 176.54 109.58 Z" />
<path fill="#00b1b7" opacity="1.00" d=" M 94.10 247.14 C 96.98 243.26 103.22 243.05 106.48 246.53 C 110.14 249.58 109.63 256.10 105.68 258.72 C 102.73 261.71 98.20 260.69 94.76 259.24 C 94.01 258.67 93.27 258.10 92.53 257.51 C 92.57 254.05 91.06 249.78 94.10 247.14 Z" />
</g>
<g id="#48a0a4ff">
<path fill="#48a0a4" opacity="1.00" d=" M 81.83 209.22 C 80.83 206.59 81.74 203.73 83.23 201.49 C 82.80 204.33 82.03 207.60 83.91 210.12 C 86.64 213.99 90.48 216.86 93.78 220.20 C 109.38 235.30 124.64 250.75 140.32 265.77 C 142.07 267.30 143.83 269.04 146.13 269.68 C 148.53 269.85 150.90 269.32 153.23 268.80 C 150.01 271.67 144.51 271.58 141.43 268.55 C 123.01 250.99 105.13 232.86 86.78 215.22 C 84.97 213.37 82.92 211.61 81.83 209.22 Z" />
</g>
<g id="#ffdd9dff">
<path fill="#ffdd9d" opacity="1.00" d=" M 46.87 233.40 C 48.84 235.00 50.72 236.71 52.50 238.53 C 74.82 260.99 98.11 282.48 120.09 305.26 C 100.00 308.58 79.88 311.74 59.84 315.37 C 52.23 308.25 44.93 300.78 37.42 293.54 C 35.06 291.59 36.77 288.43 37.09 285.98 C 40.49 268.48 43.30 250.87 46.87 233.40 Z" />
</g>
<g id="#50989eff">
<path fill="#50989e" opacity="1.00" d=" M 92.53 257.51 C 87.18 251.24 94.53 241.05 102.15 242.96 C 108.91 243.66 113.28 253.01 108.14 258.05 C 105.17 261.94 97.92 263.70 94.76 259.24 C 98.20 260.69 102.73 261.71 105.68 258.72 C 109.63 256.10 110.14 249.58 106.48 246.53 C 103.22 243.05 96.98 243.26 94.10 247.14 C 91.06 249.78 92.57 254.05 92.53 257.51 Z" />
</g>
<g id="#020202ff">
<path fill="#020202" opacity="1.00" d=" M 34.71 297.79 C 36.15 298.48 37.41 299.46 38.48 300.63 C 43.62 305.88 49.10 310.80 54.10 316.20 C 46.38 318.36 38.28 318.56 30.50 320.53 C 32.22 313.01 33.10 305.33 34.71 297.79 Z" />
</g>
</svg>
